<svg width="28" height="28" viewBox="0 0 28 28" fill="none" xmlns="http://www.w3.org/2000/svg">
<path d="M14 28L12.6 23.8H2.8C2.03 23.8 1.37083 23.5258 0.8225 22.9775C0.274167 22.4292 0 21.77 0 21V2.8C0 2.03 0.274167 1.37083 0.8225 0.8225C1.37083 0.274167 2.03 0 2.8 0H11.2L12.425 4.2H25.2C26.0167 4.2 26.6875 4.4625 27.2125 4.9875C27.7375 5.5125 28 6.18333 28 7V25.2C28 25.97 27.7375 26.6292 27.2125 27.1775C26.6875 27.7258 26.0167 28 25.2 28H14ZM7.21 17.64C8.82 17.64 10.1442 17.1208 11.1825 16.0825C12.2208 15.0442 12.74 13.6967 12.74 12.04C12.74 11.8533 12.7342 11.6842 12.7225 11.5325C12.7108 11.3808 12.6817 11.2233 12.635 11.06H7.105V13.23H10.22C10.0333 13.8833 9.6775 14.3908 9.1525 14.7525C8.6275 15.1142 7.99167 15.295 7.245 15.295C6.335 15.295 5.55333 14.9683 4.9 14.315C4.24667 13.6617 3.92 12.8567 3.92 11.9C3.92 10.9433 4.24667 10.1383 4.9 9.485C5.55333 8.83167 6.335 8.505 7.245 8.505C7.665 8.505 8.06167 8.58083 8.435 8.7325C8.80833 8.88417 9.14667 9.11167 9.45 9.415L11.165 7.77C10.675 7.25667 10.0858 6.86 9.3975 6.58C8.70917 6.3 7.98 6.16 7.21 6.16C5.64667 6.16 4.31083 6.71417 3.2025 7.8225C2.09417 8.93083 1.54 10.29 1.54 11.9C1.54 13.51 2.09417 14.8692 3.2025 15.9775C4.31083 17.0858 5.64667 17.64 7.21 17.64ZM16.59 18.34L17.36 17.605C17.0333 17.2083 16.7358 16.8233 16.4675 16.45C16.1992 16.0767 15.9367 15.68 15.68 15.26L16.59 18.34ZM18.34 16.555C18.9933 15.785 19.4892 15.05 19.8275 14.35C20.1658 13.65 20.3933 13.1017 20.51 12.705H14.945L15.365 14.175H16.765C16.9517 14.525 17.1733 14.9042 17.43 15.3125C17.6867 15.7208 17.99 16.135 18.34 16.555ZM15.4 26.6H25.2C25.62 26.6 25.9583 26.4658 26.215 26.1975C26.4717 25.9292 26.6 25.5967 26.6 25.2V7C26.6 6.58 26.4717 6.24167 26.215 5.985C25.9583 5.72833 25.62 5.6 25.2 5.6H12.845L14.49 11.27H17.255V9.8H18.69V11.27H23.8V12.705H22.015C21.7817 13.5917 21.4317 14.455 20.965 15.295C20.4983 16.135 19.95 16.9167 19.32 17.64L23.135 21.385L22.12 22.4L18.34 18.62L17.08 19.915L18.2 23.8L15.4 26.6Z" fill="black"/>
</svg>
