<svg width="32" height="32" viewBox="0 0 32 32" fill="none" xmlns="http://www.w3.org/2000/svg">
<path d="M16 20.3636C17.2121 20.3636 18.2424 19.9394 19.0909 19.0909C19.9394 18.2424 20.3636 17.2121 20.3636 16C20.3636 14.7879 19.9394 13.7576 19.0909 12.9091C18.2424 12.0606 17.2121 11.6364 16 11.6364C14.7879 11.6364 13.7576 12.0606 12.9091 12.9091C12.0606 13.7576 11.6364 14.7879 11.6364 16C11.6364 17.2121 12.0606 18.2424 12.9091 19.0909C13.7576 19.9394 14.7879 20.3636 16 20.3636ZM16 23.2727C13.9879 23.2727 12.2727 22.5636 10.8545 21.1455C9.43636 19.7273 8.72727 18.0121 8.72727 16C8.72727 13.9879 9.43636 12.2727 10.8545 10.8545C12.2727 9.43636 13.9879 8.72727 16 8.72727C18.0121 8.72727 19.7273 9.43636 21.1455 10.8545C22.5636 12.2727 23.2727 13.9879 23.2727 16C23.2727 18.0121 22.5636 19.7273 21.1455 21.1455C19.7273 22.5636 18.0121 23.2727 16 23.2727ZM5.81818 17.4545H0V14.5455H5.81818V17.4545ZM32 17.4545H26.1818V14.5455H32V17.4545ZM14.5455 5.81818V0H17.4545V5.81818H14.5455ZM14.5455 32V26.1818H17.4545V32H14.5455ZM7.85455 9.81818L4.18182 6.29091L6.25455 4.14545L9.74545 7.78182L7.85455 9.81818ZM25.7455 27.8545L22.2182 24.1818L24.1455 22.1818L27.8182 25.7091L25.7455 27.8545ZM22.1818 7.85455L25.7091 4.18182L27.8545 6.25455L24.2182 9.74545L22.1818 7.85455ZM4.14545 25.7455L7.81818 22.2182L9.81818 24.1455L6.29091 27.8182L4.14545 25.7455Z" fill="black"/>
</svg>
